<svg width="105" height="123" viewBox="0 0 105 123" fill="none" xmlns="http://www.w3.org/2000/svg">
<g clip-path="url(#clip0_1138_2)">
<path fill-rule="evenodd" clip-rule="evenodd" d="M87.9 78.04C90.64 77.56 93.23 77.64 95.5 78.17V24.82L39.05 41.03V102.98C39.08 103.32 39.1 103.67 39.1 104.01V104.02C39.1 112.36 30.35 120.64 19.55 122.51C8.76 124.37 0 119.12 0 110.77C0 102.43 8.76 94.15 19.55 92.29C23.61 91.59 27.39 91.9 30.52 93V16.74H30.99L104.04 0V85.92C104.17 86.55 104.24 87.19 104.24 87.83C104.24 87.83 104.24 87.83 104.24 87.84C104.24 94.81 96.92 101.73 87.91 103.28C78.89 104.84 71.58 100.45 71.58 93.48C71.57 86.51 78.88 79.59 87.9 78.04Z" fill="white"/>
</g>
<defs>
<clipPath id="clip0_1138_2">
<rect width="104.23" height="122.88" fill="white"/>
</clipPath>
</defs>
</svg>
